<?xml version="1.0" standalone="no"?>
<!DOCTYPE svg PUBLIC "-//W3C//DTD SVG 20010904//EN"
 "http://www.w3.org/TR/2001/REC-SVG-20010904/DTD/svg10.dtd">
<svg version="1.0" xmlns="http://www.w3.org/2000/svg"
 width="512.000000pt" height="512.000000pt" viewBox="0 0 512.000000 512.000000"
 preserveAspectRatio="xMidYMid meet">
<metadata>
Created by potrace 1.14, written by Peter Selinger 2001-2017
</metadata>
<g transform="translate(0.000000,512.000000) scale(0.100000,-0.100000)"
fill="#000000" stroke="none">
<path d="M293 4225 c-120 -33 -204 -102 -256 -213 l-32 -67 -3 -207 -4 -208
2562 0 2562 0 -4 208 -3 207 -32 67 c-53 113 -136 181 -260 213 -84 22 -4449
21 -4530 0z"/>
<path d="M1400 3166 c-77 -21 -141 -57 -199 -112 l-56 -53 45 -45 44 -46 266
0 266 0 44 45 44 45 -44 46 c-108 110 -273 158 -410 120z m-40 -146 c15 -28
-4 -60 -36 -60 -31 0 -54 41 -34 65 18 21 57 19 70 -5z m178 -8 c4 -28 -14
-52 -38 -52 -26 0 -43 26 -36 55 6 22 11 26 39 23 25 -2 33 -8 35 -26z m170
16 c30 -30 0 -75 -43 -64 -19 5 -25 13 -25 35 0 15 3 31 7 34 11 11 48 8 61
-5z"/>
<path d="M777 2942 c-20 -22 -21 -34 -6 -84 l10 -38 59 0 c58 0 58 0 65 33 4
17 9 40 11 49 3 9 -4 26 -15 37 -28 28 -101 29 -124 3z"/>
<path d="M2108 2949 c-19 -10 -23 -43 -12 -98 l7 -32 61 3 61 3 9 48 c7 40 5
51 -9 67 -20 22 -87 27 -117 9z"/>
<path d="M1113 2816 c-45 -21 -53 -43 -53 -155 l0 -101 -181 0 -180 0 3 -42 3
-43 178 -3 177 -2 0 -45 0 -45 40 0 40 0 0 -195 0 -195 33 -20 c68 -42 67 -45
67 195 l0 215 40 0 40 0 0 -215 c0 -240 -1 -237 68 -195 l32 20 0 141 c0 131
1 141 18 134 9 -4 27 -10 40 -12 20 -5 22 -11 22 -62 0 -88 16 -130 70 -182
108 -105 272 -82 343 50 26 46 27 56 27 185 l0 135 -152 3 -152 3 -8 30 c-12
45 -39 74 -83 90 l-40 13 -3 151 -3 151 -103 0 c-57 0 -136 2 -177 5 -53 4
-83 1 -106 -9z m297 -125 c0 -33 -4 -40 -22 -43 -19 -2 -24 -10 -26 -45 -3
-40 -1 -43 22 -43 24 0 26 -4 26 -40 l0 -40 -130 0 -130 0 0 40 c0 36 2 40 26
40 23 0 25 3 22 43 -2 35 -7 43 -25 45 -19 3 -23 10 -23 43 l0 39 130 0 130 0
0 -39z m440 -477 c0 -89 -17 -132 -62 -158 -41 -25 -102 -24 -136 1 -44 32
-62 79 -62 161 l0 72 130 0 130 0 0 -76z"/>
<path d="M1670 2184 c0 -41 18 -64 48 -64 37 0 52 17 52 57 0 33 0 33 -50 33
-47 0 -50 -2 -50 -26z"/>
<path d="M1940 2515 l0 -45 180 0 180 0 0 45 0 45 -180 0 -180 0 0 -45z"/>
<path d="M825 2336 l-120 -42 -3 -42 c-2 -23 0 -42 5 -42 4 0 65 19 136 42
l127 42 0 43 c0 28 -4 43 -12 42 -7 -1 -67 -21 -133 -43z"/>
<path d="M2030 2337 l0 -43 128 -42 c70 -23 131 -42 135 -42 5 0 7 19 5 43
l-3 42 -120 42 c-66 23 -126 42 -132 42 -9 1 -13 -14 -13 -42z"/>
<path d="M688 1943 c-26 -4 -28 -8 -28 -49 l0 -44 178 2 177 3 3 41 c3 41 2
41 -35 47 -41 7 -250 7 -295 0z"/>
<path d="M2032 1943 l-53 -4 3 -42 3 -42 178 -3 178 -2 -3 47 -3 48 -125 1
c-69 0 -149 -1 -178 -3z"/>
<path d="M2 1383 l3 -208 32 -67 c35 -75 100 -146 162 -177 104 -54 -21 -51
2361 -51 2382 0 2257 -3 2361 51 62 31 127 102 162 177 l32 67 3 208 4 207
-2562 0 -2562 0 4 -207z"/>
</g>
</svg>
