<svg width="28" height="26" viewBox="0 0 28 26" fill="none" xmlns="http://www.w3.org/2000/svg">
<path d="M24.7196 12.8926H18.3496C19.2797 13.9225 19.8397 15.2826 19.8397 16.7626V21.5926C19.8397 22.2026 19.7396 22.7925 19.5696 23.3426H24.7196C26.5297 23.3426 27.9996 21.8625 27.9996 20.0626V16.1725C27.9996 14.3625 26.5297 12.8926 24.7196 12.8926Z" fill="black"/>
<path d="M16.4799 4.513C16.0999 5.19299 15.8799 5.99298 15.8799 6.83301C15.8799 7.33301 15.9599 7.81299 16.0999 8.263C16.7099 10.183 18.5099 11.583 20.6199 11.583C23.2399 11.583 25.3699 9.453 25.3699 6.83301C25.3699 4.21301 23.2399 2.08301 20.6199 2.08301C18.8499 2.08301 17.2999 3.06299 16.4799 4.513Z" fill="black"/>
<path d="M3.8252 25.4268H14.0107C16.1201 25.4268 17.8359 23.707 17.8359 21.5928V16.7671C17.8359 14.6577 16.1201 12.9414 14.0107 12.9414H3.8252C1.71582 12.9414 0 14.6577 0 16.7671V21.5928C0 23.707 1.71582 25.4268 3.8252 25.4268Z" fill="black"/>
<path d="M3.26172 5.65625C3.26172 8.7749 5.79883 11.312 8.91797 11.312C12.0371 11.312 14.5742 8.7749 14.5742 5.65625C14.5742 2.5376 12.0371 0 8.91797 0C5.79883 0 3.26172 2.5376 3.26172 5.65625Z" fill="black"/>
</svg>
