<svg width="30" height="30" viewBox="0 0 30 30" fill="none" xmlns="http://www.w3.org/2000/svg">
<path fill-rule="evenodd" clip-rule="evenodd" d="M9.27762 27.0113L2.15625 29.2776L0 29.9638L3.02918 21.0166C2.52084 20.0822 2.11819 19.0923 1.83131 18.0672C1.4833 16.8234 1.3077 15.5379 1.3077 14.2464C1.3077 10.4459 2.81979 6.84291 5.51538 4.16902C8.21973 1.48643 11.8497 0 15.6581 0C19.4653 0 23.0933 1.48821 25.7954 4.17119C28.4898 6.8467 30 10.4505 30 14.251C30 18.0508 28.4882 21.6534 25.7934 24.3271C23.0901 27.0093 19.4613 28.4962 15.6538 28.4962C14.4459 28.4962 13.2424 28.3471 12.072 28.0476C11.1068 27.8007 10.17 27.4528 9.27758 27.0113L9.27762 27.0113Z" fill="#EEEEEE"/>
<path fill-rule="evenodd" clip-rule="evenodd" d="M28.8557 14.2514C28.8557 10.6324 27.378 7.35566 24.989 4.98346C22.6003 2.61158 19.3011 1.14453 15.6579 1.14453C12.0115 1.14453 8.71073 2.61108 6.32089 4.98168C3.92999 7.35334 2.45157 10.6295 2.45157 14.2468C2.45157 15.4611 2.61951 16.6394 2.93287 17.7593C3.24425 18.872 3.69976 19.9255 4.27716 20.8979L1.98989 27.6537L1.80908 28.1878L2.34632 28.0168L9.38132 25.778C10.3127 26.2793 11.3092 26.672 12.3554 26.9397C13.4094 27.2093 14.5141 27.3525 15.6536 27.3525C19.2984 27.3525 22.5981 25.8859 24.9873 23.5154C27.3776 21.1439 28.8557 17.8681 28.8557 14.2514L28.8557 14.2514Z" fill="#54CC61"/>
<path fill-rule="evenodd" clip-rule="evenodd" d="M13.5113 10.6734C13.4534 10.5567 13.1188 9.74873 12.8105 9.00402C12.6134 8.52793 12.4254 8.07392 12.3886 7.9861C12.0413 7.15817 11.6575 7.18313 11.3631 7.20226C11.3438 7.2035 11.3252 7.20473 11.3003 7.20473C11.1976 7.20473 11.0966 7.19834 10.992 7.19171C10.8612 7.18341 10.7255 7.1748 10.5972 7.1748C10.4266 7.1748 10.1942 7.21019 9.9496 7.3247C9.76817 7.40962 9.58099 7.53749 9.40969 7.7257C9.3847 7.75269 9.36588 7.77248 9.34544 7.79396C8.93784 8.22241 8.04932 9.15636 8.04932 10.95C8.04932 12.8316 9.40613 14.6209 9.60551 14.8836L9.6048 14.8842L9.60664 14.8866L9.60888 14.8888C9.6167 14.8989 9.64549 14.941 9.68805 15.0033C10.1891 15.7362 12.4928 19.1053 15.9946 20.473C19.1715 21.7127 19.7464 21.5735 20.2599 21.4493C20.3473 21.4282 20.4326 21.4075 20.525 21.399C20.9408 21.3599 21.621 21.0752 22.1935 20.6755C22.6683 20.3439 23.0829 19.9248 23.2415 19.4836C23.3831 19.089 23.4632 18.7225 23.5003 18.4208C23.5543 17.9826 23.5116 17.6378 23.4318 17.5046L23.4307 17.5035C23.3095 17.3037 23.0998 17.2047 22.7852 17.0562C22.7297 17.03 22.6704 17.002 22.6134 16.9744L22.6136 16.9741C22.3967 16.8637 21.6463 16.4968 21.0048 16.1936C20.5902 15.9976 20.2219 15.8293 20.0761 15.7769C19.8709 15.7032 19.6921 15.6475 19.5005 15.6691C19.2832 15.6936 19.0936 15.8056 18.9179 16.0717L18.9174 16.0713C18.8291 16.2039 18.6737 16.4027 18.5038 16.6108C18.2347 16.9404 17.9137 17.3106 17.7768 17.466V17.4671C17.7184 17.5336 17.6681 17.5699 17.6187 17.5758C17.5501 17.5841 17.4559 17.556 17.3254 17.4919C17.242 17.4502 17.1607 17.4151 17.0604 17.3718C16.5531 17.1529 15.565 16.7266 14.4389 15.7296C14.0361 15.373 13.6816 14.9833 13.3855 14.6176C12.9063 14.0257 12.5825 13.4984 12.4538 13.2762C12.3523 13.102 12.4651 12.9891 12.5693 12.8849L12.5688 12.8843C12.684 12.7692 12.8144 12.6125 12.9452 12.4553C13.0048 12.3836 13.0644 12.312 13.1369 12.2284L13.1381 12.2273C13.3145 12.0221 13.3877 11.8727 13.4864 11.671C13.5036 11.6359 13.5216 11.5991 13.5398 11.5629L13.5409 11.5618C13.6277 11.3868 13.6499 11.2204 13.6338 11.0644C13.6187 10.9192 13.5702 10.7897 13.5109 10.6736L13.5113 10.6734Z" fill="#FFFFFE"/>
</svg>
